<?xml version="1.0" encoding="iso-8859-1"?>
<!DOCTYPE svg PUBLIC "-//W3C//DTD SVG 1.0//EN" "http://www.w3.org/TR/2001/REC-SVG-20010904/DTD/svg10.dtd">
<svg width="2920" height="1611" xmlns="http://www.w3.org/2000/svg" xmlns:xlink="http://www.w3.org/1999/xlink">
<g style="stroke:black;fill:lightgreen" transform="translate(30,30)">
<line x1="1774" y1="485" x2="1416" y2="842" style="stroke:blue; stroke-width:1"/>
<line x1="1416" y1="842" x2="1312" y2="687" style="stroke:blue; stroke-width:1"/>
<line x1="1312" y1="687" x2="1312" y2="24" style="stroke:blue; stroke-width:1"/>
<line x1="1312" y1="687" x2="1241" y2="657" style="stroke:blue; stroke-width:1"/>
<line x1="1241" y1="657" x2="877" y2="293" style="stroke:blue; stroke-width:1"/>
<line x1="1241" y1="657" x2="104" y2="657" style="stroke:blue; stroke-width:1"/>
<line x1="1416" y1="842" x2="1408" y2="929" style="stroke:blue; stroke-width:1"/>
<line x1="1408" y1="929" x2="1106" y2="1230" style="stroke:blue; stroke-width:1"/>
<line x1="1408" y1="929" x2="1627" y2="1256" style="stroke:blue; stroke-width:1"/>
<line x1="1627" y1="1256" x2="1627" y2="1542" style="stroke:blue; stroke-width:1"/>
<line x1="1627" y1="1256" x2="1959" y2="1394" style="stroke:blue; stroke-width:1"/>
<line x1="1959" y1="1394" x2="2125" y2="1559" style="stroke:blue; stroke-width:1"/>
<line x1="1959" y1="1394" x2="2666" y2="1394" style="stroke:blue; stroke-width:1"/>
<text x="1774" y="486" font-weight = "10" font-family="verdana" fill="black" font-size="18">M1</text>
<text x="1306" y="23" font-weight = "10" font-family="verdana" fill="black" font-size="18">M3</text>
<text x="865" y="294" font-weight = "10" font-family="verdana" fill="black" font-size="18">B1</text>
<text x="90" y="664" font-weight = "10" font-family="verdana" fill="black" font-size="18">B4</text>
<text x="1094" y="1243" font-weight = "10" font-family="verdana" fill="black" font-size="18">B3</text>
<text x="1621" y="1557" font-weight = "10" font-family="verdana" fill="black" font-size="18">B2</text>
<text x="2124" y="1572" font-weight = "10" font-family="verdana" fill="black" font-size="18">M2</text>
<text x="2668" y="1401" font-weight = "10" font-family="verdana" fill="black" font-size="18">M4</text>
</g></svg>